<svg width="166" height="166" viewBox="0 0 166 166" fill="none" xmlns="http://www.w3.org/2000/svg">
<path d="M83 158C124.422 158 158 124.422 158 83C158 41.5775 124.422 8 83 8C41.5775 8 8 41.5775 8 83C8 124.422 41.5775 158 83 158ZM83 158H158M83 60.5C85.9837 60.5 88.8452 59.3147 90.955 57.205C93.0647 55.0952 94.25 52.2337 94.25 49.25C94.25 46.2663 93.0647 43.4048 90.955 41.295C88.8452 39.1853 85.9837 38 83 38C80.0163 38 77.1548 39.1853 75.045 41.295C72.9353 43.4048 71.75 46.2663 71.75 49.25C71.75 52.2337 72.9353 55.0952 75.045 57.205C77.1548 59.3147 80.0163 60.5 83 60.5ZM83 128C85.9837 128 88.8452 126.815 90.955 124.705C93.0647 122.595 94.25 119.734 94.25 116.75C94.25 113.766 93.0647 110.905 90.955 108.795C88.8452 106.685 85.9837 105.5 83 105.5C80.0163 105.5 77.1548 106.685 75.045 108.795C72.9353 110.905 71.75 113.766 71.75 116.75C71.75 119.734 72.9353 122.595 75.045 124.705C77.1548 126.815 80.0163 128 83 128ZM49.25 94.25C52.2337 94.25 55.0952 93.0647 57.205 90.955C59.3147 88.8452 60.5 85.9837 60.5 83C60.5 80.0163 59.3147 77.1548 57.205 75.045C55.0952 72.9353 52.2337 71.75 49.25 71.75C46.2663 71.75 43.4048 72.9353 41.295 75.045C39.1853 77.1548 38 80.0163 38 83C38 85.9837 39.1853 88.8452 41.295 90.955C43.4048 93.0647 46.2663 94.25 49.25 94.25ZM116.75 94.25C119.734 94.25 122.595 93.0647 124.705 90.955C126.815 88.8452 128 85.9837 128 83C128 80.0163 126.815 77.1548 124.705 75.045C122.595 72.9353 119.734 71.75 116.75 71.75C113.766 71.75 110.905 72.9353 108.795 75.045C106.685 77.1548 105.5 80.0163 105.5 83C105.5 85.9837 106.685 88.8452 108.795 90.955C110.905 93.0647 113.766 94.25 116.75 94.25Z" stroke="#E0D7CE" stroke-width="15" stroke-linecap="round" stroke-linejoin="round"/>
</svg>
